<svg width="23" height="22" viewBox="0 0 23 22" fill="none" xmlns="http://www.w3.org/2000/svg">
<path d="M3.39999 11.1631C3.39999 9.33238 3.39999 8.41701 3.81535 7.65818C4.23071 6.89935 4.98955 6.4284 6.50722 5.48649L8.10722 4.49348C9.7115 3.49782 10.5136 2.99998 11.4 2.99998C12.2863 2.99998 13.0885 3.49782 14.6928 4.49348L16.2928 5.48648C17.8104 6.4284 18.5693 6.89935 18.9846 7.65818C19.4 8.41701 19.4 9.33238 19.4 11.1631V12.3799C19.4 15.5007 19.4 17.061 18.4627 18.0305C17.5255 19 16.017 19 13 19H9.79999C6.783 19 5.27451 19 4.33725 18.0305C3.39999 17.061 3.39999 15.5007 3.39999 12.3799V11.1631Z" stroke="#5F6573" stroke-width="1.4"/>
<path d="M14.0667 15.7999H8.73334" stroke="#5769FF" stroke-width="1.4" stroke-linecap="round"/>
</svg>
