<svg width="23" height="22" viewBox="0 0 23 22" fill="none" xmlns="http://www.w3.org/2000/svg">
<path d="M12.1334 3V5.13333C12.1334 7.14466 12.1334 8.15032 12.6541 8.77516C13.1748 9.4 14.0129 9.4 15.689 9.4H19.0668" stroke="#5769FF" stroke-width="1.4"/>
<path d="M14.3144 4.64292L13.8461 5.16322L13.8461 5.16322L14.3144 4.64292ZM17.4814 7.49324L17.0131 8.01354L17.0131 8.01354L17.4814 7.49324ZM19.3232 9.52328L18.6838 9.80806L18.6838 9.80806L19.3232 9.52328ZM4.53729 18.0627L5.03227 17.5678L5.03227 17.5678L4.53729 18.0627ZM18.6628 18.0627L18.1678 17.5678L18.1678 17.5678L18.6628 18.0627ZM13.2 19V18.3H10V19V19.7H13.2V19ZM3.60004 12.6H4.30004V9.4H3.60004H2.90004V12.6H3.60004ZM19.6 12.2503H18.9V12.6H19.6H20.3V12.2503H19.6ZM14.3144 4.64292L13.8461 5.16322L17.0131 8.01354L17.4814 7.49324L17.9497 6.97293L14.7827 4.12261L14.3144 4.64292ZM19.6 12.2503H20.3C20.3 10.9085 20.3142 10.0277 19.9627 9.23849L19.3232 9.52328L18.6838 9.80806C18.8859 10.2619 18.9 10.7848 18.9 12.2503H19.6ZM17.4814 7.49324L17.0131 8.01354C18.1024 8.99392 18.4817 9.35423 18.6838 9.80806L19.3232 9.52328L19.9627 9.23849C19.6112 8.44929 18.9471 7.87058 17.9497 6.97293L17.4814 7.49324ZM10.0239 3V3.7C11.2969 3.7 11.7523 3.71081 12.1566 3.86595L12.4074 3.21241L12.6582 2.55888C11.9554 2.28919 11.1909 2.3 10.0239 2.3V3ZM14.3144 4.64292L14.7827 4.12261C13.9195 3.34572 13.3609 2.82853 12.6582 2.55888L12.4074 3.21241L12.1566 3.86595C12.561 4.02113 12.9048 4.316 13.8461 5.16322L14.3144 4.64292ZM10 19V18.3C8.47175 18.3 7.39596 18.2985 6.58204 18.1891C5.78826 18.0824 5.34916 17.8847 5.03227 17.5678L4.53729 18.0627L4.04232 18.5577C4.66269 19.1781 5.44647 19.449 6.39549 19.5766C7.32438 19.7015 8.51133 19.7 10 19.7V19ZM3.60004 12.6H2.90004C2.90004 14.0887 2.89855 15.2757 3.02344 16.2045C3.15103 17.1536 3.42195 17.9373 4.04232 18.5577L4.53729 18.0627L5.03227 17.5678C4.71538 17.2509 4.51767 16.8118 4.41095 16.018C4.30152 15.2041 4.30004 14.1283 4.30004 12.6H3.60004ZM13.2 19V19.7C14.6887 19.7 15.8757 19.7015 16.8046 19.5766C17.7536 19.449 18.5374 19.1781 19.1578 18.5577L18.6628 18.0627L18.1678 17.5678C17.8509 17.8847 17.4118 18.0824 16.618 18.1891C15.8041 18.2985 14.7283 18.3 13.2 18.3V19ZM19.6 12.6H18.9C18.9 14.1283 18.8986 15.2041 18.7891 16.018C18.6824 16.8118 18.4847 17.2509 18.1678 17.5678L18.6628 18.0627L19.1578 18.5577C19.7781 17.9373 20.049 17.1536 20.1766 16.2045C20.3015 15.2757 20.3 14.0887 20.3 12.6H19.6ZM3.60004 9.4H4.30004C4.30004 7.87172 4.30152 6.79592 4.41095 5.982C4.51767 5.18822 4.71538 4.74912 5.03227 4.43223L4.53729 3.93726L4.04232 3.44228C3.42195 4.06265 3.15103 4.84643 3.02344 5.79546C2.89855 6.72435 2.90004 7.91129 2.90004 9.4H3.60004ZM10.0239 3V2.3C8.52715 2.3 7.33448 2.29853 6.40187 2.42334C5.44965 2.55079 4.66323 2.82137 4.04232 3.44228L4.53729 3.93726L5.03227 4.43223C5.34861 4.11589 5.78905 3.91784 6.58758 3.81097C7.40572 3.70147 8.48771 3.7 10.0239 3.7V3Z" fill="#5F6573"/>
<path d="M6.80011 12.6H13.2001" stroke="#5769FF" stroke-width="1.4" stroke-linecap="round"/>
<path d="M6.80011 15.8H12.1334" stroke="#5769FF" stroke-width="1.4" stroke-linecap="round"/>
</svg>
