<svg width="23" height="22" viewBox="0 0 23 22" fill="none" xmlns="http://www.w3.org/2000/svg">
<path d="M17.7867 8.90044V8.25455C17.7867 4.70821 15.0169 1.83333 11.6 1.83333C8.18322 1.83333 5.41333 4.70821 5.41333 8.25455V8.90044C5.41333 9.67556 5.19228 10.4333 4.77802 11.0783L3.76287 12.6587C2.83562 14.1023 3.5435 16.0645 5.1562 16.521C9.37505 17.7152 13.825 17.7152 18.0439 16.521C19.6566 16.0645 20.3644 14.1023 19.4372 12.6587L18.4221 11.0783C18.0078 10.4333 17.7867 9.67556 17.7867 8.90044Z" stroke="#5769FF" stroke-width="1.4"/>
<path opacity="0.5" d="M7.47504 17.4167C8.07548 19.0188 9.69562 20.1667 11.6 20.1667C13.5045 20.1667 15.1246 19.0188 15.725 17.4167" stroke="white" stroke-width="1.4" stroke-linecap="round"/>
<path opacity="0.5" d="M11.6 5.5V9.16667" stroke="white" stroke-width="1.4" stroke-linecap="round"/>
</svg>
