<svg width="23" height="22" viewBox="0 0 23 22" fill="none" xmlns="http://www.w3.org/2000/svg">
<path d="M12.1961 19.6054L12.7985 19.9619L12.7985 19.9619L12.1961 19.6054ZM12.693 18.7658L12.0906 18.4093L12.0906 18.4093L12.693 18.7658ZM9.70693 18.7658L9.10454 19.1224L9.10454 19.1224L9.70693 18.7658ZM10.2039 19.6054L10.8062 19.2488L10.8062 19.2488L10.2039 19.6054ZM2.38221 14.5873L3.02893 14.3194L3.02893 14.3194L2.38221 14.5873ZM7.34044 17.4088L7.32838 18.1087L7.32838 18.1087L7.34044 17.4088ZM4.86269 17.0678L4.59481 17.7145L4.59482 17.7145L4.86269 17.0678ZM20.0178 14.5873L20.6645 14.8552L20.6645 14.8552L20.0178 14.5873ZM15.0595 17.4088L15.0474 16.7089L15.0474 16.7089L15.0595 17.4088ZM17.5373 17.0678L17.8052 17.7145L17.8052 17.7145L17.5373 17.0678ZM18.1781 2.50873L17.8124 3.10558L17.8124 3.10558L18.1781 2.50873ZM19.6913 4.02188L20.2881 3.65613L20.2881 3.65613L19.6913 4.02188ZM4.22187 2.50873L3.85612 1.91188L3.85612 1.91188L4.22187 2.50873ZM2.70872 4.02188L2.11188 3.65613L2.11188 3.65613L2.70872 4.02188ZM8.81922 17.609L9.17115 17.0039L9.17115 17.0039L8.81922 17.609ZM12.1961 19.6054L12.7985 19.9619L13.2954 19.1224L12.693 18.7658L12.0906 18.4093L11.5937 19.2488L12.1961 19.6054ZM9.70693 18.7658L9.10454 19.1224L9.60147 19.9619L10.2039 19.6054L10.8062 19.2488L10.3093 18.4093L9.70693 18.7658ZM12.1961 19.6054L11.5937 19.2488C11.4219 19.5392 10.9781 19.5392 10.8062 19.2488L10.2039 19.6054L9.60147 19.9619C10.3154 21.1681 12.0845 21.1681 12.7985 19.9619L12.1961 19.6054ZM9.82499 1.83333V2.53333H12.575V1.83333V1.13333H9.82499V1.83333ZM20.3667 9.625H19.6667V10.5417H20.3667H21.0667V9.625H20.3667ZM2.03333 10.5417H2.73333V9.625H2.03333H1.33333V10.5417H2.03333ZM2.03333 10.5417H1.33333C1.33333 11.5999 1.33295 12.4286 1.37856 13.0971C1.4246 13.7719 1.51983 14.3345 1.7355 14.8552L2.38221 14.5873L3.02893 14.3194C2.8957 13.9978 2.81649 13.6053 2.77531 13.0018C2.7337 12.392 2.73333 11.619 2.73333 10.5417H2.03333ZM7.34044 17.4088L7.3525 16.7089C6.20168 16.6891 5.60083 16.6159 5.13057 16.4211L4.86269 17.0678L4.59482 17.7145C5.33512 18.0211 6.17771 18.0889 7.32838 18.1087L7.34044 17.4088ZM2.38221 14.5873L1.7355 14.8552C2.27172 16.1497 3.30025 17.1783 4.59481 17.7145L4.86269 17.0678L5.13057 16.4211C4.17905 16.0269 3.42306 15.2709 3.02893 14.3194L2.38221 14.5873ZM20.3667 10.5417H19.6667C19.6667 11.619 19.6663 12.392 19.6247 13.0018C19.5835 13.6053 19.5043 13.9978 19.3711 14.3194L20.0178 14.5873L20.6645 14.8552C20.8802 14.3345 20.9754 13.7719 21.0214 13.0971C21.067 12.4286 21.0667 11.5999 21.0667 10.5417H20.3667ZM15.0595 17.4088L15.0716 18.1087C16.2223 18.0889 17.0649 18.0211 17.8052 17.7145L17.5373 17.0678L17.2694 16.4211C16.7992 16.6159 16.1983 16.6891 15.0474 16.7089L15.0595 17.4088ZM20.0178 14.5873L19.3711 14.3194C18.9769 15.2709 18.2209 16.0269 17.2694 16.4211L17.5373 17.0678L17.8052 17.7145C19.0997 17.1783 20.1283 16.1497 20.6645 14.8552L20.0178 14.5873ZM12.575 1.83333V2.53333C14.0889 2.53333 15.1751 2.53407 16.0222 2.61462C16.8589 2.69417 17.3898 2.84661 17.8124 3.10558L18.1781 2.50873L18.5439 1.91188C17.8643 1.49546 17.0939 1.3102 16.1547 1.2209C15.226 1.13259 14.0618 1.13333 12.575 1.13333V1.83333ZM20.3667 9.625H21.0667C21.0667 8.13823 21.0674 6.974 20.9791 6.04525C20.8898 5.10608 20.7045 4.33568 20.2881 3.65613L19.6913 4.02188L19.0944 4.38763C19.3534 4.81023 19.5058 5.34107 19.5854 6.17776C19.6659 7.02487 19.6667 8.11112 19.6667 9.625H20.3667ZM18.1781 2.50873L17.8124 3.10558C18.3349 3.42578 18.7742 3.86511 19.0944 4.38763L19.6913 4.02188L20.2881 3.65613C19.8525 2.94523 19.2548 2.34753 18.5439 1.91188L18.1781 2.50873ZM9.82499 1.83333V1.13333C8.33822 1.13333 7.17399 1.13259 6.24524 1.2209C5.30607 1.3102 4.53567 1.49546 3.85612 1.91188L4.22187 2.50873L4.58762 3.10558C5.01023 2.84661 5.54106 2.69417 6.37776 2.61462C7.22486 2.53407 8.31112 2.53333 9.82499 2.53333V1.83333ZM2.03333 9.625H2.73333C2.73333 8.11112 2.73406 7.02487 2.81461 6.17776C2.89416 5.34107 3.0466 4.81023 3.30557 4.38763L2.70872 4.02188L2.11188 3.65613C1.69545 4.33568 1.51019 5.10608 1.42089 6.04525C1.33259 6.974 1.33333 8.13823 1.33333 9.625H2.03333ZM4.22187 2.50873L3.85612 1.91188C3.14522 2.34753 2.54752 2.94523 2.11188 3.65613L2.70872 4.02188L3.30557 4.38763C3.62578 3.86511 4.0651 3.42578 4.58762 3.10558L4.22187 2.50873ZM9.70693 18.7658L10.3093 18.4093C10.1233 18.0951 9.95961 17.817 9.80031 17.5985C9.63241 17.3681 9.43928 17.1599 9.17115 17.0039L8.81922 17.609L8.46728 18.2141C8.50872 18.2382 8.56672 18.2828 8.66892 18.423C8.77974 18.5751 8.9051 18.7854 9.10454 19.1224L9.70693 18.7658ZM7.34044 17.4088L7.32838 18.1087C7.73112 18.1157 7.98538 18.1208 8.17901 18.1422C8.35966 18.1622 8.42816 18.1914 8.46729 18.2141L8.81922 17.609L9.17115 17.0039C8.90072 16.8466 8.61957 16.7824 8.33309 16.7507C8.05959 16.7204 7.72924 16.7154 7.3525 16.7089L7.34044 17.4088ZM12.693 18.7658L13.2954 19.1224C13.4948 18.7854 13.6202 18.5751 13.731 18.423C13.8332 18.2828 13.8912 18.2382 13.9327 18.2141L13.5807 17.609L13.2288 17.0039C12.9607 17.1599 12.7675 17.3681 12.5996 17.5985C12.4403 17.817 12.2766 18.0951 12.0906 18.4093L12.693 18.7658ZM15.0595 17.4088L15.0474 16.7089C14.6707 16.7154 14.3404 16.7204 14.0669 16.7507C13.7804 16.7824 13.4992 16.8466 13.2288 17.0039L13.5807 17.609L13.9327 18.2141C13.9718 18.1914 14.0403 18.1622 14.2209 18.1422C14.4146 18.1208 14.6688 18.1157 15.0716 18.1087L15.0595 17.4088Z" fill="#5769FF"/>
<path opacity="0.5" d="M7.53333 8.25H14.8667" stroke="white" stroke-width="1.4" stroke-linecap="round"/>
<path opacity="0.5" d="M7.53333 11.4583H12.575" stroke="white" stroke-width="1.4" stroke-linecap="round"/>
</svg>
